<svg width="160" height="160" viewBox="0 0 160 160" fill="none" xmlns="http://www.w3.org/2000/svg">
<g clip-path="url(#clip0_26_5)">
<mask id="path-1-outside-1_26_5" maskUnits="userSpaceOnUse" x="11" y="8" width="145" height="150" fill="black">
<rect fill="white" x="11" y="8" width="145" height="150"/>
<path d="M134.301 23.9668L95.2041 143H71.3809L32.4502 23.9668H59.5107L83.251 103.405L107.074 23.9668H134.301Z"/>
</mask>
<path d="M134.301 23.9668L148.552 28.6476L155.016 8.9668H134.301V23.9668ZM95.2041 143V158H106.066L109.455 147.681L95.2041 143ZM71.3809 143L57.124 147.663L60.5048 158H71.3809V143ZM32.4502 23.9668V8.9668H11.7625L18.1933 28.6296L32.4502 23.9668ZM59.5107 23.9668L73.8827 19.6717L70.6835 8.9668H59.5107V23.9668ZM83.251 103.405L68.879 107.7L83.2259 155.707L97.6188 107.714L83.251 103.405ZM107.074 23.9668V8.9668H95.9126L92.7064 19.658L107.074 23.9668ZM120.05 19.286L80.9531 138.319L109.455 147.681L148.552 28.6476L120.05 19.286ZM95.2041 128H71.3809V158H95.2041V128ZM85.6377 138.337L46.7071 19.304L18.1933 28.6296L57.124 147.663L85.6377 138.337ZM32.4502 38.9668H59.5107V8.9668H32.4502V38.9668ZM45.1388 28.2619L68.879 107.7L97.6229 99.1102L73.8827 19.6717L45.1388 28.2619ZM97.6188 107.714L121.442 28.2756L92.7064 19.658L68.8832 99.0964L97.6188 107.714ZM107.074 38.9668H134.301V8.9668H107.074V38.9668Z" fill="#009BB5" mask="url(#path-1-outside-1_26_5)"/>
<mask id="path-3-outside-2_26_5" maskUnits="userSpaceOnUse" x="9" y="8" width="136" height="144" fill="black">
<rect fill="white" x="9" y="8" width="136" height="144"/>
<path d="M128.301 20.9668L89.2041 140H65.3809L26.4502 20.9668H53.5107L77.251 100.405L101.074 20.9668H128.301Z"/>
</mask>
<path d="M128.301 20.9668L89.2041 140H65.3809L26.4502 20.9668H53.5107L77.251 100.405L101.074 20.9668H128.301Z" fill="#E60082"/>
<path d="M128.301 20.9668L139.702 24.7114L144.873 8.9668H128.301V20.9668ZM89.2041 140V152H97.8934L100.605 143.745L89.2041 140ZM65.3809 140L53.9754 143.73L56.68 152H65.3809V140ZM26.4502 20.9668V8.9668H9.90001L15.0447 24.697L26.4502 20.9668ZM53.5107 20.9668L65.0083 17.5308L62.4489 8.9668H53.5107V20.9668ZM77.251 100.405L65.7534 103.841L77.2309 142.247L88.7452 103.852L77.251 100.405ZM101.074 20.9668V8.9668H92.145L89.58 17.5197L101.074 20.9668ZM116.9 17.2222L77.8033 136.255L100.605 143.745L139.702 24.7114L116.9 17.2222ZM89.2041 128H65.3809V152H89.2041V128ZM76.7864 136.27L37.8557 17.2365L15.0447 24.697L53.9754 143.73L76.7864 136.27ZM26.4502 32.9668H53.5107V8.9668H26.4502V32.9668ZM42.0132 24.4028L65.7534 103.841L88.7485 96.9692L65.0083 17.5308L42.0132 24.4028ZM88.7452 103.852L112.568 24.4139L89.58 17.5197L65.7567 96.9582L88.7452 103.852ZM101.074 32.9668H128.301V8.9668H101.074V32.9668Z" fill="white" mask="url(#path-3-outside-2_26_5)"/>
</g>
<defs>
<clipPath id="clip0_26_5">
<rect width="160" height="160" fill="white"/>
</clipPath>
</defs>
</svg>
