<svg width="512" height="512" viewBox="0 0 512 512" fill="none" xmlns="http://www.w3.org/2000/svg">
<circle cx="256" cy="256" r="213" fill="#005867" stroke="#90EFFF" stroke-width="20"/>
<g filter="url(#filter0_d_1_2)">
<path d="M363.5 225.689C386.833 239.161 386.833 272.839 363.5 286.311L228.5 364.253C205.167 377.725 176 360.885 176 333.942L176 178.058C176 151.115 205.167 134.275 228.5 147.747L363.5 225.689Z" fill="#00C9EB"/>
<path d="M358.5 277.651L223.5 355.593C206.833 365.215 186 353.187 186 333.942L186 178.058C186 158.813 206.833 146.785 223.5 156.407L358.5 234.349C375.167 243.972 375.167 268.028 358.5 277.651Z" stroke="#91EFFF" stroke-width="20"/>
</g>
<defs>
<filter id="filter0_d_1_2" x="176" y="143.005" width="220" height="240.989" filterUnits="userSpaceOnUse" color-interpolation-filters="sRGB">
<feFlood flood-opacity="0" result="BackgroundImageFix"/>
<feColorMatrix in="SourceAlpha" type="matrix" values="0 0 0 0 0 0 0 0 0 0 0 0 0 0 0 0 0 0 127 0" result="hardAlpha"/>
<feOffset dx="15" dy="15"/>
<feComposite in2="hardAlpha" operator="out"/>
<feColorMatrix type="matrix" values="0 0 0 0 0 0 0 0 0 0 0 0 0 0 0 0 0 0 0.5 0"/>
<feBlend mode="normal" in2="BackgroundImageFix" result="effect1_dropShadow_1_2"/>
<feBlend mode="normal" in="SourceGraphic" in2="effect1_dropShadow_1_2" result="shape"/>
</filter>
</defs>
</svg>
